inDegrees=no
num_controls=7
num_derivatives=13
num_iterations=107
num_multipliers=7
num_parameters=0
num_slacks=7
num_states=26
objective=0.477129
objective_accelerations=0.052380
objective_balance=0.001854
objective_effort=0.016399
objective_height=0.396982
objective_ligament=0.009515
solver_duration=1528.057070
status=Solve_Succeeded
success=true
DataType=double
version=3
OpenSimVersion=4.5
endheader
time	/jointset/ground_pelvis/pelvis_tilt/value	/jointset/ground_pelvis/pelvis_tx/value	/jointset/ground_pelvis/pelvis_ty/value	/jointset/hip_l/hip_flexion_l/value	/jointset/hip_l/hip_adduction_l/value	/jointset/hip_l/hip_rotation_l/value	/jointset/back/lumbar_extension/value	/jointset/patellofemoral_l/patellar_flexion_l/value	/jointset/knee_l/knee_flexion_l/value	/jointset/knee_l/knee_adduction_l/value	/jointset/knee_l/knee_rotation_l/value	/jointset/ankle_l/ankle_angle_l/value	/jointset/subtalar_l/subtalar_angle_l/value	/jointset/ground_pelvis/pelvis_tilt/speed	/jointset/ground_pelvis/pelvis_tx/speed	/jointset/ground_pelvis/pelvis_ty/speed	/jointset/hip_l/hip_flexion_l/speed	/jointset/hip_l/hip_adduction_l/speed	/jointset/hip_l/hip_rotation_l/speed	/jointset/back/lumbar_extension/speed	/jointset/patellofemoral_l/patellar_flexion_l/speed	/jointset/knee_l/knee_flexion_l/speed	/jointset/knee_l/knee_adduction_l/speed	/jointset/knee_l/knee_rotation_l/speed	/jointset/ankle_l/ankle_angle_l/speed	/jointset/subtalar_l/subtalar_angle_l/speed	/forceset/tau_hip_flexion_l	/forceset/tau_hip_adduction_l	/forceset/tau_hip_rotation_l	/forceset/tau_knee_flexion_l	/forceset/tau_ankle_angle_l	/forceset/tau_subtalar_angle_l	/forceset/tau_lumbar_extension	lambda_cid13_p0	lambda_cid13_p1	lambda_cid13_p2	lambda_cid13_p3	lambda_cid13_p4	lambda_cid13_p5	lambda_cid14_p0	/jointset/ground_pelvis/pelvis_tilt/accel	/jointset/ground_pelvis/pelvis_tx/accel	/jointset/ground_pelvis/pelvis_ty/accel	/jointset/hip_l/hip_flexion_l/accel	/jointset/hip_l/hip_adduction_l/accel	/jointset/hip_l/hip_rotation_l/accel	/jointset/back/lumbar_extension/accel	/jointset/patellofemoral_l/patellar_flexion_l/accel	/jointset/knee_l/knee_flexion_l/accel	/jointset/knee_l/knee_adduction_l/accel	/jointset/knee_l/knee_rotation_l/accel	/jointset/ankle_l/ankle_angle_l/accel	/jointset/subtalar_l/subtalar_angle_l/accel	gamma_cid13_p0	gamma_cid13_p1	gamma_cid13_p2	gamma_cid13_p3	gamma_cid13_p4	gamma_cid13_p5	gamma_cid14_p0
1.5	-0.4866413491406235	-0.01828713768105556	0.8156390058872118	1.044606254561431	-0.3448564706893231	-0.1482085349468827	-0.3289481000766097	0.4803559344045121	0.4803559344045241	-0.06613694751714039	-0.174371022962343	0.01219792039237834	0.08136609396032345	0.8990128527661035	0.4526287001741217	0.3626239258869411	-2.389541337077362	0.0104168373356696	-0.4461582710161577	0.6092270349646577	-1.308581604064902	-1.308581604064786	-0.1914730924077539	0.005850421330442053	0.08961721021291391	0.04264093637755338	-0.1803490176180166	0.01258767553352009	0.007813650417282969	-0.06160309966377656	0.02897455978912837	0.00897898322614535	0.1528044157494266	-14.92160574183992	-4.389426776850478	3.962607851772109	-5.947883398120343	-436.1634990052472	-65.32744985380984	-22.69872482106209	0.6361447859044768	0.7047342790442883	-0.4720242926307384	-1.473451685673143	0.1959209563485016	-0.2172190578531941	1.618316012206522	-0.4262973749808067	-0.4262973749808074	-0.2305262811702519	0.1716597702437742	0.3859072958004774	0.3219685976755926	4.750768162472313e-08	7.193173589410206e-07	-4.285608878782355e-07	1.228738218815864e-07	2.504845598644941e-07	-2.677017506494908e-08	1.8069040762585e-07
1.51	-0.4776200295589292	-0.01372603010622372	0.8192409881452063	1.02063890363681	-0.3447434316868675	-0.1526813105608627	-0.3227759777999802	0.4672500012974015	0.4672500012974322	-0.06806469404376421	-0.1743051008092025	0.01311312649106343	0.08180759100415053	0.9051239718757246	0.4595431472862236	0.3577023030145453	-2.403641777478088	0.01219970248553011	-0.4483411298611829	0.6251609042057586	-1.312453420481093	-1.312453420481051	-0.1940484004877822	0.007360534317693982	0.09342979560975322	0.04566989345410063	-0.1749097343927877	0.01211950907005389	0.00801665746260335	-0.05994945702750136	0.02629789098432218	0.007906303559279893	0.1487495976809622	-15.70367878102514	-3.960845849203578	4.093280326992622	-5.411704602118497	-433.5665442311833	-64.94133804712325	-23.01792387202596	0.5795489450831429	0.6773743966587239	-0.5127094049876206	-1.33525791235099	0.1706938738381955	-0.2103163980295179	1.575444956734243	-0.3449207560014613	-0.3449207560125364	-0.2667459018347609	0.1445508212990348	0.379822275419235	0.2950065009186744	4.663700342717016e-08	7.375246407759447e-07	-4.337504074865485e-07	1.229413191113769e-07	2.676024745335483e-07	-1.171421281984442e-08	1.819247808543496e-07
1.52	-0.4685414080918188	-0.009097263166397779	0.822791658550388	0.9965391647691667	-0.3446123191170036	-0.157174214183337	-0.316445612315605	0.4541098906299384	0.4541098906299496	-0.07001733621732412	-0.1742233047744848	0.01406663606647575	0.08227970706639812	0.9104732298490311	0.4661605731729405	0.3523615553244256	-2.416018925681962	0.01403155081672515	-0.4501838727142989	0.6408756765137547	-1.315417116139812	-1.315417116139844	-0.1964522217844347	0.009025197638268831	0.0972779055583356	0.04876474006162301	-0.1694704511675584	0.01165134260657849	0.008219664507676559	-0.05829581439121338	0.02362122217951685	0.00683362389240803	0.1446947796124997	-16.48850207162232	-3.531662367136542	4.223718923767945	-4.881633485295495	-431.0209104658701	-64.59673738875864	-23.32033636760662	0.4837725586415853	0.6453300339673136	-0.5558492561755245	-1.128793246302626	0.2057175926154171	-0.1491958594713848	1.574496625585554	-0.2446732234863034	-0.2446732234863133	-0.1962289244950832	0.2025698369083645	0.3930122061491093	0.3351465038706242	4.546893006957736e-08	7.866161769333199e-07	-4.338455658237236e-07	1.255457594299413e-07	2.922263838695337e-07	4.991204438560267e-09	1.864988942743328e-07
1.53	-0.4594131363108319	-0.004403897498258938	0.8262868619008478	0.9723243289665672	-0.3444627335024609	-0.161684027202677	-0.309959650942328	0.4409446355049723	0.4409446355050178	-0.07199326602041603	-0.1741242959351554	0.01505867656648292	0.0827829729943295	0.9150401040228111	0.4724524702486249	0.3466100162039235	-2.426628783370758	0.01588879326563665	-0.4517068691206061	0.656245772954263	-1.317469206107912	-1.31746920610791	-0.1987119889819344	0.01080967093008803	0.1011306915288337	0.0518926383561723	-0.1637433173605731	0.01095550021516055	0.008394486379009868	-0.05694365636152569	0.02126467974686603	0.005642923818543038	0.1403761546559313	-17.17733038794224	-3.057232683202021	4.334609711136342	-4.355395435723515	-428.4244103730329	-64.21516905912739	-23.60577561214949	0.4220067249308165	0.6121327500997837	-0.5951025690348311	-0.9791434369131473	0.1760939836123817	-0.1429167309393205	1.507642375174481	-0.1608112660030442	-0.1608112659979737	-0.237443480130595	0.1712317579920528	0.381510784516608	0.3021472180972199	4.398487435444223e-08	8.685222333082988e-07	-4.28527965310315e-07	1.308457017803279e-07	3.248254125391333e-07	2.344916764859623e-08	1.946214816477672e-07
1.54	-0.4502434234124689	0.0003505897817828543	0.829722490594293	0.9480129823057318	-0.3442945021809096	-0.1662068832260287	-0.3033221133602676	0.4277637926038418	0.4277637926038845	-0.07399111206808974	-0.1740064732263333	0.01608926472459852	0.08331762505037657	0.9187614533239716	0.4783848955535305	0.3404466239215619	-2.435321097329356	0.01776069221788175	-0.4527924735160673	0.6711909182704121	-1.318534671377259	-1.318534671377223	-0.2008354706895598	0.0127879715288388	0.1049874371799893	0.05504196568472686	-0.1580161835535853	0.01025965782373625	0.008569308250086007	-0.05559149833182048	0.01890813731421839	0.004452223744675349	0.1360575296993643	-17.8680457974873	-2.581860575705533	4.444651700037597	-3.836468803871022	-425.8629887772274	-63.87201675990728	-23.87422873601306	0.3146675841177403	0.5734356798115976	-0.6382198885474107	-0.7452845002629683	0.2086488932821505	-0.06171745730216018	1.489506400713736	-0.04734828373587759	-0.04734828373586621	-0.1689718265202404	0.2413352982946851	0.3938041422806204	0.3394323106716843	4.35633084067373e-08	9.543986456498377e-07	-4.298747849031298e-07	1.346194183277427e-07	3.683710003291428e-07	4.579522010053513e-08	2.035439993750821e-07
1.55	-0.4410407829399094	0.005162378900160557	0.8330944400337567	0.9236245589259054	-0.3441076052686997	-0.1707387124580692	-0.2965381787875264	0.4145771842990804	0.4145771842991099	-0.07600965369422932	-0.1738682534005441	0.01715811107885846	0.08388365258687462	0.9216030545379602	0.4838878382349914	0.3338718379156488	-2.441976413394574	0.01961396651813205	-0.4534969814894778	0.6854485924331158	-1.318596802611979	-1.318596802611959	-0.2028538900511446	0.0148784468898343	0.1087614092570455	0.05815337948493236	-0.1518266651800989	0.0092858198825434	0.008706348028573804	-0.05454698997019365	0.01667445971256051	0.003172376592350863	0.1312830779344451	-18.52291946432315	-2.066464310025232	4.539650337584524	-3.173164420435177	-423.129465224364	-63.50474089492531	-24.12580514701352	0.2443808517408818	0.5259876301541265	-0.6777307193797073	-0.5675601937364314	0.1728109494396821	-0.06318828067765256	1.371787347336905	0.04283872949593112	0.04283872949355859	-0.2152575246407439	0.1961420537681993	0.3661590244174817	0.2953517942381002	4.4365915451941e-08	1.044849598561544e-06	-4.389001754878971e-07	1.366346573195598e-07	4.245289279752761e-07	7.262102754857936e-08	2.133881759883899e-07
1.56	-0.4318146315628683	0.01002665025892099	0.8363985170606081	0.8991812013786109	-0.3439023467632761	-0.1752752609325108	-0.2896160895885002	0.4013956515365497	0.40139565153655	-0.07804777562074115	-0.1737084811413722	0.01826409021068886	0.08448046543728346	0.9234636342200045	0.4888813436300754	0.3268721413991131	-2.446307930823195	0.0214330108601115	-0.4537363219955729	0.698821843527348	-1.317519562933259	-1.317519562933254	-0.2047515307592552	0.01709845820147679	0.1124139926940761	0.06119902846686204	-0.1456371468066141	0.008311981941337214	0.008843387806935823	-0.05350248160855637	0.01444078211090252	0.001892529440014032	0.126508626169526	-19.17863384621497	-1.549832874838988	4.633209935900264	-2.518307786747558	-420.4110837708613	-63.17221827126574	-24.36079578851292	0.1184632777289142	0.4715482225362408	-0.7232019906719354	-0.2805247729433628	0.2018029016279878	0.03131603616092093	1.312621787019418	0.1805258989521143	0.1805258989521387	-0.1448160958254059	0.2672424884240895	0.369526414275515	0.3262793470165267	4.393557769203384e-08	1.138348461448812e-06	-4.429918203848503e-07	1.393705222677751e-07	4.789923124483515e-07	1.01028937385285e-07	2.225355355966381e-07
1.57	-0.4225748483940976	0.0149381024468777	0.839630524616482	0.8747063433237156	-0.3436791379563945	-0.1798122991740174	-0.2825655526673113	0.3882304672721998	0.3882304672721817	-0.08010430418326497	-0.1735262705647382	0.01940566547499276	0.08510724143744365	0.9243073602012321	0.4933010633983667	0.3194596481622705	-2.448216868051846	0.02319794080493544	-0.4535965179382523	0.7110663264454524	-1.315308579845448	-1.315308579845435	-0.2065347280461524	0.01935249394887108	0.1158602164771084	0.0641336017012106	-0.1390565835412151	0.007071921376009939	0.00892937534534941	-0.05289216139762579	0.01252461374721133	0.0004998415570141296	0.1213570867045307	-19.74730446573258	-0.9861943945144208	4.704150227697056	-1.776945555608895	-417.7168654573247	-62.82719075135358	-24.57962023175215	0.03948980336986467	0.4110082897727294	-0.7606189370657946	-0.07903836041448369	0.1620348337522104	0.01671492940677944	1.14747940445336	0.2726439119555363	0.2726439119567381	-0.1919452209360237	0.2056737510576169	0.3260772665053004	0.2735096709950612	4.196405892573811e-08	1.235657211805535e-06	-4.409162831720357e-07	1.43007169661488e-07	5.313375179551045e-07	1.314144752078174e-07	2.308118739485618e-07
1.58	-0.4133321954565031	0.0198905167196767	0.8427863380506128	0.8502258038640172	-0.3434386404914943	-0.1843456589071754	-0.2753991473448915	0.37509364471838	0.3750936447183461	-0.08217803945382154	-0.1733212817039952	0.02058048435836466	0.08576265584181764	0.9240375879844646	0.4970737605985354	0.3116333170504426	-2.447444211784039	0.02489074246346452	-0.4530006203253649	0.7219955237734526	-1.31184722082724	-1.311847220827219	-0.2081928723656154	0.02165411502268539	0.1190627165076687	0.06692670930960036	-0.1324760202758168	0.005831860810672132	0.009015362883742549	-0.05228184118668989	0.01060844538352004	-0.0008928463259964192	0.1162055472395362	-20.31599647227271	-0.4209695089152661	4.773030497433594	-1.044849363368005	-415.0213607638027	-62.51240424207493	-24.78287903009196	-0.1042363618700571	0.3421437089117368	-0.8059695656690045	0.2557939263482707	0.1873772443690196	0.1225347472743042	1.049564668998551	0.43060108503144	0.4306010850314459	-0.1198055023385657	0.2767595537080991	0.3207816637811089	0.297986221824771	3.998909868547487e-08	1.30943868688111e-06	-4.411790982708331e-07	1.445819336683861e-07	5.769473345870372e-07	1.610016487901433e-07	2.362275044013082e-07
1.59	-0.4040977693485416	0.02487727991528462	0.8458619151749154	0.8257664004653537	-0.3431816149019257	-0.1888709476922705	-0.2681304797116741	0.3619975581945223	0.3619975581945096	-0.08426779180819773	-0.1730931876415792	0.02178588967236323	0.0864451853793399	0.9226571507337812	0.5001555261287234	0.3034197924267751	-2.443962557789561	0.02649491012912377	-0.4519805995078088	0.7314814431292447	-1.307149022815346	-1.307149022815388	-0.2097448977050811	0.0239637009061201	0.1219650918298284	0.06954370969090991	-0.1259093481116729	0.004489638120669896	0.009058826066134094	-0.05181362188396825	0.008697202758076299	-0.002349196777293357	0.111023274326879	-20.90896175477517	0.178297880429325	4.834034040355076	-0.2111278823971393	-412.6424077310014	-62.19122837682949	-24.97128414839107	-0.1835153810773802	0.2727186417851063	-0.8382641881583163	0.4654529821553829	0.1438210204720106	0.1033986037313447	0.8596216077460873	0.5225405937103863	0.5225405937009612	-0.1707756272134089	0.207769394590547	0.2670118873466025	0.2380701350010065	3.800946787339861e-08	1.351290288360844e-06	-4.446153915068176e-07	1.433584273646071e-07	6.134162663174286e-07	1.895053280464746e-07	2.37760745562314e-07
